<?xml version="1.0" encoding="UTF-8" standalone="no"?>
<!DOCTYPE svg PUBLIC "-//W3C//DTD SVG 1.1//EN"
 "http://www.w3.org/Graphics/SVG/1.1/DTD/svg11.dtd">
<!-- Generated by graphviz version 2.34.0 (20130928.0902)
 -->
<!-- Title: %3 Pages: 1 -->
<svg width="464pt" height="98pt"
 viewBox="0.00 0.00 464.00 98.00" xmlns="http://www.w3.org/2000/svg" xmlns:xlink="http://www.w3.org/1999/xlink">
<g id="graph0" class="graph" transform="scale(1 1) rotate(0) translate(4 94)">
<title>%3</title>
<!-- mpileaks -->
<g id="node1" class="node"><title>mpileaks</title>
<polygon fill="none" stroke="black" points="65.5,-67 0.5,-67 0.5,-31 65.5,-31 65.5,-67"/>
<text text-anchor="middle" x="33" y="-46.5" font-family="monaco" font-size="10.00">mpileaks</text>
</g>
<!-- mpich -->
<g id="node2" class="node"><title>mpich</title>
<polygon fill="none" stroke="black" points="261,-90 207,-90 207,-54 261,-54 261,-90"/>
<text text-anchor="middle" x="234" y="-69.5" font-family="monaco" font-size="10.00">mpich</text>
</g>
<!-- mpileaks&#45;&gt;mpich -->
<g id="edge1" class="edge"><title>mpileaks&#45;&gt;mpich</title>
<path fill="none" stroke="black" d="M65.5321,-52.6444C101.195,-56.7663 159.172,-63.4672 196.694,-67.8039"/>
<polygon fill="black" stroke="black" points="196.364,-71.2889 206.699,-68.9602 197.167,-64.3352 196.364,-71.2889"/>
</g>
<!-- callpath -->
<g id="node3" class="node"><title>callpath</title>
<polygon fill="none" stroke="black" points="167.5,-44 102.5,-44 102.5,-8 167.5,-8 167.5,-44"/>
<text text-anchor="middle" x="135" y="-23.5" font-family="monaco" font-size="10.00">callpath</text>
</g>
<!-- mpileaks&#45;&gt;callpath -->
<g id="edge2" class="edge"><title>mpileaks&#45;&gt;callpath</title>
<path fill="none" stroke="black" d="M65.6406,-41.7227C74.1218,-39.772 83.4213,-37.6331 92.3547,-35.5784"/>
<polygon fill="black" stroke="black" points="93.261,-38.9614 102.222,-33.3089 91.6919,-32.1396 93.261,-38.9614"/>
</g>
<!-- callpath&#45;&gt;mpich -->
<g id="edge3" class="edge"><title>callpath&#45;&gt;mpich</title>
<path fill="none" stroke="black" d="M167.761,-41.0621C177.392,-45.6291 188.026,-50.672 197.864,-55.3375"/>
<polygon fill="black" stroke="black" points="196.459,-58.5447 206.994,-59.6672 199.458,-52.2198 196.459,-58.5447"/>
</g>
<!-- dyninst -->
<g id="node4" class="node"><title>dyninst</title>
<polygon fill="none" stroke="black" points="263.5,-36 204.5,-36 204.5,-0 263.5,-0 263.5,-36"/>
<text text-anchor="middle" x="234" y="-15.5" font-family="monaco" font-size="10.00">dyninst</text>
</g>
<!-- callpath&#45;&gt;dyninst -->
<g id="edge4" class="edge"><title>callpath&#45;&gt;dyninst</title>
<path fill="none" stroke="black" d="M167.761,-23.3805C176.26,-22.6796 185.54,-21.9142 194.365,-21.1864"/>
<polygon fill="black" stroke="black" points="194.763,-24.6655 204.442,-20.3553 194.188,-17.6892 194.763,-24.6655"/>
</g>
<!-- libdwarf -->
<g id="node5" class="node"><title>libdwarf</title>
<polygon fill="none" stroke="black" points="365.5,-59 300.5,-59 300.5,-23 365.5,-23 365.5,-59"/>
<text text-anchor="middle" x="333" y="-38.5" font-family="monaco" font-size="10.00">libdwarf</text>
</g>
<!-- dyninst&#45;&gt;libdwarf -->
<g id="edge5" class="edge"><title>dyninst&#45;&gt;libdwarf</title>
<path fill="none" stroke="black" d="M263.579,-24.7764C271.943,-26.7596 281.264,-28.9698 290.268,-31.1047"/>
<polygon fill="black" stroke="black" points="289.692,-34.5653 300.23,-33.4669 291.307,-27.7541 289.692,-34.5653"/>
</g>
<!-- libelf -->
<g id="node6" class="node"><title>libelf</title>
<polygon fill="none" stroke="black" points="456,-36 402,-36 402,-0 456,-0 456,-36"/>
<text text-anchor="middle" x="429" y="-15.5" font-family="monaco" font-size="10.00">libelf</text>
</g>
<!-- dyninst&#45;&gt;libelf -->
<g id="edge7" class="edge"><title>dyninst&#45;&gt;libelf</title>
<path fill="none" stroke="black" d="M263.781,-15.8475C275.067,-15.1032 288.134,-14.3648 300,-14 329.319,-13.0987 336.682,-13.0552 366,-14 374.354,-14.2692 383.332,-14.742 391.79,-15.2703"/>
<polygon fill="black" stroke="black" points="391.562,-18.7629 401.772,-15.9325 392.026,-11.7782 391.562,-18.7629"/>
</g>
<!-- libdwarf&#45;&gt;libelf -->
<g id="edge6" class="edge"><title>libdwarf&#45;&gt;libelf</title>
<path fill="none" stroke="black" d="M365.562,-33.2773C374.073,-31.195 383.343,-28.9268 392.072,-26.7908"/>
<polygon fill="black" stroke="black" points="393.113,-30.1396 401.994,-24.3631 391.449,-23.3402 393.113,-30.1396"/>
</g>
</g>
</svg>
